<svg width="24" height="24" viewBox="0 0 24 24" fill="none" xmlns="http://www.w3.org/2000/svg">
<path d="M19.447 5.34494C19.2463 4.66453 18.8299 4.06782 18.2604 3.64483C17.6909 3.22183 16.9994 2.99549 16.29 2.99994C15.4679 3.00068 14.6758 3.30891 14.0694 3.86405C13.463 4.41919 13.0861 5.18107 13.013 5.99994H10.988C10.9139 5.18022 10.5358 4.41786 9.9281 3.86273C9.32042 3.3076 8.52707 2.99984 7.704 2.99994C6.99558 2.99647 6.30521 3.22328 5.73689 3.64623C5.16857 4.06918 4.75308 4.66535 4.553 5.34494L2.042 13.7129C2.01449 13.8061 2.00035 13.9028 2 13.9999V14.9999C2.00159 16.3257 2.52902 17.5967 3.46657 18.5341C4.40413 19.4714 5.67523 19.9986 7.001 19.9999C7.97268 19.9983 8.92285 19.7137 9.73547 19.181C10.5481 18.6482 11.188 17.8904 11.577 16.9999H12.423C12.812 17.8904 13.4519 18.6482 14.2645 19.181C15.0771 19.7137 16.0273 19.9983 16.999 19.9999C18.3249 19.9986 19.5962 19.4713 20.5338 18.5337C21.4714 17.5961 21.9987 16.3249 22 14.9989V13.9999C22 13.9019 21.985 13.8059 21.958 13.7129L19.447 5.34494ZM7.001 17.9999C6.20558 17.9989 5.44303 17.6825 4.88049 17.1202C4.31796 16.5578 4.00132 15.7954 4 14.9999C4 14.9239 4.017 14.8529 4.022 14.7779C4.07671 14.0247 4.41394 13.32 4.96616 12.8049C5.51838 12.2897 6.24482 12.0022 7 11.9999C7.79565 11.9999 8.55871 12.316 9.12132 12.8786C9.68393 13.4412 10 14.2043 10 14.9999V15.0089C9.99657 15.8025 9.67925 16.5625 9.11734 17.1229C8.55543 17.6833 7.7946 17.9986 7.001 17.9999ZM16.999 17.9999C16.2054 17.9986 15.4446 17.6833 14.8827 17.1229C14.3208 16.5625 14.0034 15.8025 14 15.0089V14.9999C13.9999 14.606 14.0775 14.2159 14.2282 13.8519C14.3789 13.4879 14.5998 13.1571 14.8783 12.8785C15.4408 12.3158 16.2039 11.9996 16.9995 11.9994C17.7951 11.9993 18.5583 12.3153 19.121 12.8778C19.6837 13.4403 19.9999 14.2033 20 14.9989C19.9989 15.7945 19.6824 16.5572 19.1199 17.1198C18.5573 17.6824 17.7946 17.9989 16.999 17.9999Z" fill="white"/>
</svg>
