<svg width="82" height="84" viewBox="0 0 82 84" fill="none" xmlns="http://www.w3.org/2000/svg">
<path d="M0.559386 55.4669L8.9185 69.9282C10.0721 71.926 12.63 72.6115 14.6278 71.4537L20.4624 68.085C22.8866 69.9951 25.5657 71.5624 28.3827 72.7327V79.4116C28.3827 81.7187 30.251 83.5912 32.5623 83.5912H49.2805C51.5918 83.5912 53.4601 81.7187 53.4601 79.4116V72.7327C56.2771 71.5624 58.952 69.9951 61.3803 68.085L67.215 71.4537C69.2086 72.6031 71.7749 71.9135 72.9243 69.9282L81.2834 55.4669C82.4328 53.4774 81.7431 50.907 79.7578 49.7576L74.0235 46.4433C74.2408 44.901 74.3537 43.3462 74.3537 41.7956C74.3537 40.245 74.2408 38.6902 74.0151 37.1479L79.7495 33.8335C81.7389 32.6841 82.4286 30.1137 81.275 28.1242L72.9159 13.663C71.7623 11.6651 69.2045 10.9797 67.2066 12.1374L61.372 15.5062C58.9478 13.5961 56.2729 12.0246 53.4559 10.8585V4.17956C53.4559 1.87244 51.5876 0 49.2763 0H32.5581C30.2468 0 28.3785 1.87244 28.3785 4.17956V10.8585C25.5615 12.0288 22.8866 13.5961 20.4583 15.5062L14.6278 12.1374C12.6258 10.9797 10.0721 11.6651 8.9185 13.663L0.559386 28.1242C-0.589992 30.1137 0.0996351 32.6841 2.08493 33.8335L7.81928 37.1479C7.59358 38.6902 7.48073 40.245 7.48073 41.7956C7.48073 43.3462 7.59358 44.901 7.81928 46.4433L2.08493 49.7576C0.0954555 50.907 -0.594172 53.4774 0.559386 55.4669ZM40.9172 25.0773C50.1373 25.0773 57.6354 32.5755 57.6354 41.7956C57.6354 51.0157 50.1373 58.5138 40.9172 58.5138C31.6971 58.5138 24.199 51.0157 24.199 41.7956C24.199 32.5755 31.6971 25.0773 40.9172 25.0773Z" fill="#254E70"/>
</svg>
