<svg width="55" height="87" viewBox="0 0 55 87" fill="none" xmlns="http://www.w3.org/2000/svg">
<path d="M47.8423 30.2152C46.2459 30.2152 44.6495 30.2152 43.053 30.2152C41.3702 30.2152 41.1073 29.9523 41.265 28.3146C41.5261 25.5856 40.9908 23.0069 39.6611 20.6367C37.2308 16.3076 33.5496 13.8152 28.5631 13.2988C21.1163 12.5268 14.4601 17.872 13.3482 25.1574C13.1661 26.3481 13.2863 27.584 13.2825 28.7991C13.2787 29.9223 13.0252 30.2096 11.9284 30.2115C8.42185 30.2171 4.91723 30.204 1.41073 30.2209C0.578707 30.2246 0.139221 29.926 0.0753635 29.0414C-0.394174 22.5411 1.3356 16.6494 5.11631 11.3943C9.46047 5.35231 15.3766 1.64485 22.7033 0.392123C36.8101 -2.0213 50.5412 6.9262 53.8355 21.1607C54.4271 23.7187 54.7614 26.3143 54.4722 28.9663C54.3651 29.9429 53.9144 30.2434 53.0072 30.2246C51.2868 30.1908 49.5646 30.2152 47.8423 30.2152Z" fill="#1DE9B6"/>
<path d="M5.36787 75.3565C3.63622 78.1249 2.13933 81.0041 1.56838 84.2702C1.51015 84.6064 1.49137 84.952 1.47447 85.2938C1.44066 85.9436 1.74305 86.308 2.40979 86.308C6.29004 86.3117 10.1722 86.3211 14.0524 86.2892C14.3079 86.2873 14.691 86.0056 14.7981 85.7596C14.8976 85.5286 15.0009 85.2994 15.1042 85.0722C17.9515 78.8874 22.5323 74.0456 27.2877 69.3539C32.0432 74.0456 36.624 78.8874 39.4713 85.0722C39.5765 85.2994 39.6779 85.5304 39.7774 85.7596C39.8845 86.0056 40.2657 86.2873 40.5231 86.2892C44.4033 86.3211 48.2854 86.3117 52.1657 86.308C52.8324 86.308 53.1329 85.9436 53.101 85.2938C53.0841 84.952 53.0653 84.6064 53.0071 84.2702C52.4361 81.0041 50.9374 78.1249 49.2076 75.3565C45.6936 69.7352 41.4058 64.7036 36.8325 59.9463H17.7411C13.1678 64.7036 8.88001 69.7352 5.36599 75.3565H5.36787Z" fill="#1DE9B6"/>
<path d="M49.1137 44.5964C50.3983 42.5755 51.4501 40.3968 52.4962 38.2369C53.1291 36.9298 52.7479 36.4358 51.328 36.4339C47.4158 36.4283 43.5036 36.4471 39.5915 36.417C38.8458 36.4114 38.3988 36.6818 37.9969 37.2998C34.9524 41.9839 31.2112 46.2848 27.2877 50.3529C23.3642 46.2829 19.623 41.982 16.5785 37.2998C16.1766 36.68 15.7296 36.4114 14.9839 36.417C11.0718 36.4471 7.15958 36.4264 3.2474 36.4339C1.82564 36.4358 1.44438 36.9298 2.07919 38.2369C3.1272 40.3968 4.17708 42.5755 5.46174 44.5964C8.95134 50.0843 13.2899 55.1084 17.8237 59.8638C17.7974 59.892 17.7711 59.9202 17.7448 59.9465H36.8362C36.8099 59.9183 36.7836 59.8901 36.7573 59.8638C41.2912 55.1102 45.6278 50.0843 49.1193 44.5964H49.1137Z" fill="#254E70"/>
<path d="M27.2409 21.9154C30.7605 21.9116 33.4218 24.5392 33.4538 28.0513C33.4857 31.5146 30.6779 34.3581 27.2371 34.345C23.8339 34.3318 21.0693 31.5296 21.0674 28.0926C21.0655 24.5955 23.74 21.9191 27.2409 21.9135V21.9154Z" fill="#1DE9B6"/>
<path d="M17.822 59.8845C19.2344 58.4158 20.6787 56.9358 22.153 55.4502C23.8753 53.7148 25.5882 52.0244 27.2879 50.3754C29.1172 52.1747 30.9559 54.004 32.7984 55.8615C34.1319 57.2063 35.4503 58.5473 36.7538 59.8845C35.3865 61.3532 33.9572 62.8388 32.4697 64.3395C30.723 66.1012 28.9914 67.7784 27.2879 69.3748C25.7666 67.9361 24.2265 66.4411 22.6752 64.8879C20.9905 63.2032 19.3734 61.5316 17.822 59.8845Z" fill="#228689"/>
</svg>
